G04 (created by PCBNEW (2013-07-07 BZR 4022)-stable) date 11/19/2014 12:35:41 PM*
%MOIN*%
G04 Gerber Fmt 3.4, Leading zero omitted, Abs format*
%FSLAX34Y34*%
G01*
G70*
G90*
G04 APERTURE LIST*
%ADD10C,0.00590551*%
%ADD11R,0.055X0.035*%
%ADD12R,0.035X0.055*%
%ADD13R,0.0315X0.0394*%
%ADD14R,0.0197X0.0315*%
%ADD15C,0.0700787*%
%ADD16R,0.0315X0.0197*%
%ADD17C,0.01*%
G04 APERTURE END LIST*
G54D10*
G54D11*
X70210Y-46980D03*
X70210Y-47730D03*
X70000Y-50755D03*
X70000Y-51505D03*
X67540Y-50775D03*
X67540Y-51525D03*
G54D12*
X70969Y-51318D03*
X71719Y-51318D03*
X70893Y-52696D03*
X70143Y-52696D03*
X71115Y-49320D03*
X70365Y-49320D03*
G54D11*
X72020Y-49310D03*
X72020Y-48560D03*
G54D12*
X70675Y-45985D03*
X69925Y-45985D03*
G54D11*
X71195Y-47700D03*
X71195Y-46950D03*
X74535Y-46550D03*
X74535Y-45800D03*
G54D12*
X73515Y-46310D03*
X72765Y-46310D03*
X71080Y-48445D03*
X70330Y-48445D03*
X74895Y-50445D03*
X75645Y-50445D03*
X75635Y-51315D03*
X74885Y-51315D03*
G54D13*
X69300Y-48487D03*
X69675Y-49353D03*
X68925Y-49353D03*
G54D14*
X73463Y-48277D03*
X74220Y-48275D03*
X73840Y-48275D03*
X74220Y-47515D03*
X73460Y-47515D03*
G54D12*
X67195Y-47950D03*
X67945Y-47950D03*
X75595Y-52225D03*
X74845Y-52225D03*
G54D15*
X67787Y-54035D03*
X68781Y-54025D03*
X69785Y-54025D03*
X70788Y-54025D03*
X71810Y-54032D03*
X72818Y-54025D03*
X73826Y-54005D03*
X74834Y-54010D03*
G54D12*
X68435Y-47050D03*
X69185Y-47050D03*
G54D15*
X69485Y-44860D03*
X70478Y-44850D03*
X71482Y-44850D03*
X72486Y-44850D03*
X73490Y-44850D03*
G54D16*
X72794Y-50967D03*
X72796Y-51724D03*
X72796Y-51344D03*
X73556Y-51724D03*
X73556Y-50964D03*
G54D17*
X71482Y-44850D02*
X71482Y-45972D01*
X74220Y-47980D02*
X74220Y-48275D01*
X74155Y-47915D02*
X74220Y-47980D01*
X72225Y-47915D02*
X74155Y-47915D01*
X72190Y-47880D02*
X72225Y-47915D01*
X72190Y-46680D02*
X72190Y-47880D01*
X71482Y-45972D02*
X72190Y-46680D01*
X69925Y-45985D02*
X69925Y-46475D01*
X69324Y-47050D02*
X69185Y-47050D01*
X69650Y-47376D02*
X69324Y-47050D01*
X70654Y-47376D02*
X69650Y-47376D01*
X70696Y-47334D02*
X70654Y-47376D01*
X70696Y-46612D02*
X70696Y-47334D01*
X70672Y-46588D02*
X70696Y-46612D01*
X70038Y-46588D02*
X70672Y-46588D01*
X69925Y-46475D02*
X70038Y-46588D01*
X70330Y-48445D02*
X69342Y-48445D01*
X69342Y-48445D02*
X69300Y-48487D01*
X69342Y-48445D02*
X69300Y-48487D01*
X70365Y-49320D02*
X70365Y-48480D01*
X70365Y-48480D02*
X70330Y-48445D01*
X69185Y-47050D02*
X69185Y-48372D01*
X69185Y-48372D02*
X69300Y-48487D01*
X69300Y-48487D02*
X69077Y-48487D01*
X69077Y-48487D02*
X68540Y-47950D01*
X68540Y-47950D02*
X67945Y-47950D01*
X70478Y-44850D02*
X70478Y-45031D01*
X69925Y-45585D02*
X69925Y-45985D01*
X70478Y-45031D02*
X69925Y-45585D01*
X72765Y-46310D02*
X72765Y-46820D01*
X72765Y-46820D02*
X73460Y-47515D01*
X72486Y-44850D02*
X72486Y-46031D01*
X72486Y-46031D02*
X72765Y-46310D01*
X73490Y-44850D02*
X73955Y-44850D01*
X74535Y-45430D02*
X74535Y-45800D01*
X73955Y-44850D02*
X74535Y-45430D01*
X73490Y-44850D02*
X73490Y-45364D01*
X73790Y-47085D02*
X74220Y-47515D01*
X73440Y-47085D02*
X73790Y-47085D01*
X73160Y-46805D02*
X73440Y-47085D01*
X73160Y-45695D02*
X73160Y-46805D01*
X73490Y-45364D02*
X73160Y-45695D01*
X70210Y-46980D02*
X70056Y-46980D01*
X67205Y-46705D02*
X67655Y-46255D01*
X67655Y-46255D02*
X69300Y-46255D01*
X67205Y-46705D02*
X67205Y-47050D01*
X69331Y-46255D02*
X69300Y-46255D01*
X70056Y-46980D02*
X69331Y-46255D01*
X68925Y-49353D02*
X68925Y-50021D01*
X71630Y-50099D02*
X71797Y-49933D01*
X69003Y-50099D02*
X71630Y-50099D01*
X68925Y-50021D02*
X69003Y-50099D01*
X71797Y-49933D02*
X71801Y-49933D01*
X71801Y-49933D02*
X72020Y-49714D01*
X72020Y-49714D02*
X72020Y-49310D01*
X71797Y-49933D02*
X71834Y-49896D01*
X70120Y-46930D02*
X70045Y-46930D01*
X69365Y-44980D02*
X69485Y-44860D01*
X69365Y-46250D02*
X69365Y-44980D01*
X74535Y-46550D02*
X75095Y-46550D01*
X72055Y-49345D02*
X72020Y-49310D01*
X74870Y-49345D02*
X72055Y-49345D01*
X75050Y-49345D02*
X74870Y-49345D01*
X75270Y-49125D02*
X75050Y-49345D01*
X75270Y-46725D02*
X75270Y-49125D01*
X75095Y-46550D02*
X75270Y-46725D01*
X73515Y-46310D02*
X74295Y-46310D01*
X74295Y-46310D02*
X74535Y-46550D01*
X68925Y-49353D02*
X67888Y-49353D01*
X67195Y-48660D02*
X67195Y-47950D01*
X67888Y-49353D02*
X67195Y-48660D01*
X68435Y-47050D02*
X67205Y-47050D01*
X67205Y-47050D02*
X67195Y-47050D01*
X67195Y-47050D02*
X67195Y-47950D01*
X72796Y-51344D02*
X72299Y-51344D01*
X72254Y-51226D02*
X72254Y-50840D01*
X72254Y-50840D02*
X72150Y-50736D01*
X72150Y-50736D02*
X71444Y-50736D01*
X71444Y-50736D02*
X71316Y-50864D01*
X71316Y-50864D02*
X71316Y-51822D01*
X71316Y-51822D02*
X71170Y-51968D01*
X71170Y-51968D02*
X70463Y-51968D01*
X70463Y-51968D02*
X70000Y-51505D01*
X72254Y-51299D02*
X72254Y-51226D01*
X72299Y-51344D02*
X72254Y-51299D01*
X70143Y-52696D02*
X70143Y-51648D01*
X70143Y-51648D02*
X70000Y-51505D01*
X75645Y-50445D02*
X75645Y-51305D01*
X75645Y-51305D02*
X75635Y-51315D01*
X75645Y-50445D02*
X76285Y-50445D01*
X68746Y-54723D02*
X68822Y-54800D01*
X68822Y-54800D02*
X75810Y-54800D01*
X75810Y-54800D02*
X76465Y-54145D01*
X68746Y-54065D02*
X68746Y-54723D01*
X68746Y-51525D02*
X68761Y-51510D01*
X68761Y-51510D02*
X68780Y-51510D01*
X68780Y-51510D02*
X68780Y-51525D01*
X68746Y-54065D02*
X68746Y-51525D01*
X76465Y-50625D02*
X76465Y-54145D01*
X76285Y-50445D02*
X76465Y-50625D01*
X67540Y-51525D02*
X68780Y-51525D01*
X68780Y-51525D02*
X69980Y-51525D01*
X69980Y-51525D02*
X70000Y-51505D01*
X74789Y-54020D02*
X74789Y-54000D01*
X75595Y-53195D02*
X75595Y-52225D01*
X74789Y-54000D02*
X75595Y-53195D01*
X74885Y-51315D02*
X74885Y-51395D01*
X75595Y-52105D02*
X75595Y-52225D01*
X74885Y-51395D02*
X75595Y-52105D01*
X73781Y-54015D02*
X73781Y-53753D01*
X74845Y-52690D02*
X74845Y-52225D01*
X73781Y-53753D02*
X74845Y-52690D01*
X72773Y-54035D02*
X72773Y-53691D01*
X74630Y-50445D02*
X74895Y-50445D01*
X74195Y-50880D02*
X74630Y-50445D01*
X74195Y-52270D02*
X74195Y-50880D01*
X72773Y-53691D02*
X74195Y-52270D01*
X73656Y-50414D02*
X73658Y-50414D01*
X73695Y-50825D02*
X73556Y-50964D01*
X73695Y-50451D02*
X73695Y-50825D01*
X73658Y-50414D02*
X73695Y-50451D01*
X70969Y-50893D02*
X71166Y-50414D01*
X71166Y-50414D02*
X73656Y-50414D01*
X73656Y-50414D02*
X73660Y-50414D01*
X70969Y-51318D02*
X70969Y-50893D01*
X70000Y-50755D02*
X70406Y-50755D01*
X70406Y-50755D02*
X70969Y-51318D01*
X66610Y-53170D02*
X66610Y-53830D01*
X66825Y-54045D02*
X67742Y-54045D01*
X66610Y-53830D02*
X66825Y-54045D01*
X68810Y-50785D02*
X69970Y-50785D01*
X68800Y-50775D02*
X68810Y-50785D01*
X69970Y-50785D02*
X70000Y-50755D01*
X67540Y-50775D02*
X68800Y-50775D01*
X66855Y-50775D02*
X67540Y-50775D01*
X66610Y-51020D02*
X66855Y-50775D01*
X66610Y-53190D02*
X66610Y-53170D01*
X66610Y-53170D02*
X66610Y-51020D01*
X71810Y-54032D02*
X71810Y-53895D01*
X73556Y-52150D02*
X73556Y-51724D01*
X71810Y-53895D02*
X73556Y-52150D01*
X72794Y-50967D02*
X73098Y-50967D01*
X73098Y-50967D02*
X73164Y-51033D01*
X73164Y-51033D02*
X73164Y-51576D01*
X73164Y-51576D02*
X73312Y-51724D01*
X73312Y-51724D02*
X73556Y-51724D01*
X71810Y-54032D02*
X71810Y-54029D01*
X69785Y-54025D02*
X69868Y-54025D01*
X70893Y-53001D02*
X70893Y-52696D01*
X69868Y-54025D02*
X70893Y-53001D01*
X70893Y-52696D02*
X71262Y-52696D01*
X71719Y-52239D02*
X71719Y-51318D01*
X71262Y-52696D02*
X71719Y-52239D01*
X71740Y-51339D02*
X71719Y-51318D01*
X70788Y-54025D02*
X70788Y-53731D01*
X70788Y-53731D02*
X72796Y-51724D01*
X70788Y-54025D02*
X70839Y-54025D01*
X70675Y-45985D02*
X70675Y-46145D01*
X71195Y-46665D02*
X71195Y-46950D01*
X70675Y-46145D02*
X71195Y-46665D01*
X70675Y-45985D02*
X70675Y-46190D01*
X71115Y-49320D02*
X71140Y-49320D01*
X71900Y-48560D02*
X72020Y-48560D01*
X71140Y-49320D02*
X71900Y-48560D01*
X72020Y-48560D02*
X72480Y-48560D01*
X73840Y-48775D02*
X73840Y-48275D01*
X73725Y-48890D02*
X73840Y-48775D01*
X72810Y-48890D02*
X73725Y-48890D01*
X72480Y-48560D02*
X72810Y-48890D01*
X71195Y-47700D02*
X71195Y-48330D01*
X71195Y-48330D02*
X71080Y-48445D01*
X69686Y-49862D02*
X70638Y-49862D01*
X70714Y-48482D02*
X70714Y-49786D01*
X70751Y-48445D02*
X70714Y-48482D01*
X70751Y-48445D02*
X71080Y-48445D01*
X70714Y-49786D02*
X70638Y-49862D01*
X69686Y-49862D02*
X69675Y-49851D01*
X69675Y-49851D02*
X69675Y-49353D01*
X69686Y-49862D02*
X69675Y-49851D01*
X70210Y-47730D02*
X71165Y-47730D01*
X71165Y-47730D02*
X71195Y-47700D01*
X71080Y-48445D02*
X71335Y-48445D01*
X73381Y-48195D02*
X73463Y-48277D01*
X71585Y-48195D02*
X73381Y-48195D01*
X71335Y-48445D02*
X71585Y-48195D01*
X71050Y-47680D02*
X71080Y-47710D01*
M02*
